<?xml version="1.0" encoding="UTF-8"?>
<svg xmlns="http://www.w3.org/2000/svg" xmlns:xlink="http://www.w3.org/1999/xlink" viewBox="0 0 100 100" width="100px" height="100px">
<g id="surface51131941">
<path style=" stroke:none;fill-rule:nonzero;fill:rgb(56.862748%,55.686277%,60.784316%);fill-opacity:1;" d="M 82 8 L 18 8 C 12.480469 8 8 12.480469 8 18 L 8 82 C 8 87.519531 12.480469 92 18 92 L 82 92 C 87.519531 92 92 87.519531 92 82 L 92 18 C 92 12.480469 87.519531 8 82 8 Z M 74 38 L 70 38 C 65.71875 38 64 39 64 42 L 64 48 L 74 48 L 72 58 L 64 58 L 64 88 L 54 88 L 54 58 L 46 58 L 46 48 L 54 48 L 54 42 C 54 34 58 28 66 28 C 71.800781 28 74 30 74 30 Z M 74 38 "/>
</g>
</svg>
