<?xml version="1.0" encoding="UTF-8"?>
<svg xmlns="http://www.w3.org/2000/svg" xmlns:xlink="http://www.w3.org/1999/xlink" viewBox="0 0 128 128" width="128px" height="128px">
<g id="surface51243386">
<path style=" stroke:none;fill-rule:nonzero;fill:rgb(56.862748%,55.686277%,60.784316%);fill-opacity:1;" d="M 123.863281 30.878906 C 119.664062 32.738281 115.152344 33.976562 110.390625 34.5625 C 115.230469 31.691406 118.957031 27.105469 120.703125 21.691406 C 116.175781 24.347656 111.15625 26.296875 105.816406 27.324219 C 101.550781 22.804688 95.46875 20 88.730469 20 C 75.789062 20 65.296875 30.398438 65.296875 43.222656 C 65.296875 45.035156 65.511719 46.804688 65.910156 48.519531 C 46.4375 47.542969 29.167969 38.285156 17.613281 24.238281 C 15.585938 27.671875 14.441406 31.691406 14.441406 35.933594 C 14.441406 43.992188 18.570312 51.089844 24.863281 55.273438 C 21.023438 55.152344 17.40625 54.085938 14.238281 52.371094 C 14.238281 52.441406 14.238281 52.546875 14.238281 52.644531 C 14.238281 63.910156 22.320312 73.289062 33.03125 75.425781 C 31.070312 75.960938 29.003906 76.261719 26.871094 76.261719 C 25.359375 76.261719 23.882812 76.089844 22.457031 75.832031 C 25.4375 85.039062 34.089844 91.769531 44.339844 91.964844 C 36.320312 98.183594 26.21875 101.90625 15.234375 101.90625 C 13.339844 101.90625 11.484375 101.800781 9.648438 101.578125 C 20.023438 108.148438 32.347656 112 45.570312 112 C 88.671875 112 112.246094 76.609375 112.246094 45.90625 C 112.246094 44.898438 112.214844 43.898438 112.164062 42.90625 C 116.769531 39.660156 120.730469 35.558594 123.863281 30.878906 "/>
</g>
</svg>
